<svg width="0" height="0" class="hidden">
  <symbol fill="none" xmlns="http://www.w3.org/2000/svg" xmlns:xlink="http://www.w3.org/1999/xlink" viewBox="0 0 30 30" id="burger">
    <desc>Created with Pixso.</desc>
    <defs>
      <clipPath id="clip1_408">
        <rect id="menu (1) 1" rx="0.000000" width="29.000000" height="29.000000" transform="translate(0.500000 0.500000)" fill="white" fill-opacity="0"></rect>
      </clipPath>
    </defs>
    <rect id="menu (1) 1" rx="0.000000" width="29.000000" height="29.000000" transform="translate(0.500000 0.500000)" fill="#FFFFFF" fill-opacity="0"></rect>
    <g clip-path="url(#clip1_408)">
      <path id="Vector" d="M0.93 9.37L29.06 9.37C29.58 9.37 29.99 8.95 29.99 8.43C29.99 7.92 29.57 7.5 29.06 7.5L0.93 7.5C0.41 7.5 0 7.92 0 8.43C0 8.95 0.42 9.37 0.93 9.37Z" fill="#000000" fill-opacity="1.000000" fill-rule="nonzero"></path>
      <path id="Vector" d="M29.06 14.06L0.93 14.06C0.41 14.06 0 14.48 0 15C0 15.51 0.42 15.93 0.93 15.93L29.06 15.93C29.58 15.93 29.99 15.51 29.99 15C29.99 14.48 29.58 14.06 29.06 14.06Z" fill="#000000" fill-opacity="1.000000" fill-rule="nonzero"></path>
      <path id="Vector" d="M29.06 20.62L10.31 20.62C9.79 20.62 9.37 21.04 9.37 21.56C9.37 22.08 9.79 22.49 10.31 22.49L29.06 22.49C29.58 22.49 29.99 22.07 29.99 21.56C30 21.04 29.58 20.62 29.06 20.62Z" fill="#000000" fill-opacity="1.000000" fill-rule="nonzero"></path>
    </g>
  </symbol>
  <symbol fill="none" xmlns="http://www.w3.org/2000/svg" viewBox="0 0 10 16" id="Group">
    <path d="M9.19978 0H3.19959L0.800354 8.63849H3.20448L1.16032 16H1.88044L8.83926 7.36114H5.31397L9.19978 0Z" fill="white"></path>
  </symbol>
  <symbol fill="none" xmlns="http://www.w3.org/2000/svg" xmlns:xlink="http://www.w3.org/1999/xlink" viewBox="0 0 16.8 15.2001" id="like">
    <desc>Created with Pixso.</desc>
    <defs></defs>
    <path id="Vector" d="M16.39 3.11C16.13 2.5 15.75 1.95 15.28 1.48C14.81 1.02 14.26 0.65 13.65 0.39C13.02 0.13 12.34 -0.01 11.66 0C10.7 0 9.76 0.26 8.95 0.76C8.76 0.88 8.57 1.01 8.4 1.16C8.22 1.01 8.04 0.88 7.84 0.76C7.03 0.26 6.09 0 5.13 0C4.44 0 3.78 0.13 3.14 0.39C2.53 0.65 1.98 1.02 1.51 1.48C1.04 1.95 0.66 2.5 0.4 3.11C0.13 3.74 0 4.42 0 5.11C0 5.77 0.13 6.45 0.39 7.14C0.61 7.72 0.92 8.32 1.33 8.93C1.96 9.89 2.84 10.89 3.93 11.9C5.74 13.59 7.52 14.75 7.6 14.8L8.06 15.1C8.26 15.23 8.53 15.23 8.73 15.1L9.19 14.8C9.27 14.75 11.05 13.59 12.86 11.9C13.95 10.89 14.83 9.89 15.46 8.93C15.87 8.32 16.18 7.72 16.4 7.14C16.66 6.45 16.79 5.77 16.79 5.11C16.8 4.42 16.66 3.74 16.39 3.11ZM8.4 13.54C8.4 13.54 1.47 9.06 1.47 5.11C1.47 3.11 3.11 1.49 5.13 1.49C6.56 1.49 7.79 2.29 8.4 3.46C9 2.29 10.24 1.49 11.66 1.49C13.68 1.49 15.32 3.11 15.32 5.11C15.32 9.06 8.4 13.54 8.4 13.54Z" fill="#282739" fill-opacity="1.000000" fill-rule="nonzero"></path>
  </symbol>
  <symbol fill="none" xmlns="http://www.w3.org/2000/svg" viewBox="0 0 15 15" id="location">
    <path d="M11.9468 1.84193C10.7591 0.654143 9.1798 0 7.50008 0C5.82034 0 4.24111 0.654114 3.05327 1.84193C1.86551 3.02969 1.21136 4.60886 1.21136 6.2886C1.21136 7.96834 1.86551 9.54757 3.05327 10.7354L7.18936 14.8713C7.27517 14.9571 7.38764 15 7.50008 15C7.61255 15 7.72502 14.9571 7.8108 14.8713L11.9467 10.7354C13.1345 9.5476 13.7887 7.96837 13.7887 6.28863C13.7887 4.60883 13.1346 3.02966 11.9468 1.84193ZM9.47505 8.26351C8.94753 8.79103 8.24616 9.08157 7.50011 9.08157C6.75406 9.08157 6.05269 8.79106 5.5252 8.26354C4.99765 7.73602 4.70714 7.03465 4.70714 6.2886C4.70714 5.54258 4.99765 4.84121 5.5252 4.31366C6.05269 3.78614 6.75406 3.49563 7.50011 3.49563C8.24616 3.49563 8.94753 3.78614 9.47505 4.31366C10.0026 4.84115 10.2931 5.54252 10.2931 6.28857C10.2931 7.03462 10.0025 7.73602 9.47505 8.26351Z" fill="white"></path>
  </symbol>
  <symbol fill="none" xmlns="http://www.w3.org/2000/svg" xmlns:xlink="http://www.w3.org/1999/xlink" viewBox="0 0 20 20" id="shopping-cart">
    <desc>Created with Pixso.</desc>
    <defs>
      <clipPath id="clip1_16000">
        <rect id="shopping-cart 2" rx="0.000000" width="19.000000" height="19.000000" transform="translate(0.500000 0.500000)" fill="white" fill-opacity="0"></rect>
      </clipPath>
    </defs>
    <rect id="shopping-cart 2" rx="0.000000" width="19.000000" height="19.000000" transform="translate(0.500000 0.500000)" fill="#FFFFFF" fill-opacity="0"></rect>
    <g clip-path="url(#clip1_16000)">
      <path id="Vector" d="M19.15 7.25L15 7.25L12.67 1.92C12.54 1.62 12.2 1.49 11.9 1.62C11.6 1.75 11.47 2.09 11.6 2.39L13.72 7.25L6.27 7.25L8.39 2.39C8.52 2.09 8.39 1.75 8.09 1.62C7.79 1.49 7.45 1.62 7.32 1.92L4.99 7.25L0.84 7.25C0.3 7.25 -0.1 7.74 0.02 8.26L2.2 17.77C2.29 18.15 2.63 18.42 3.03 18.42L16.96 18.42C17.36 18.42 17.7 18.15 17.79 17.77L19.97 8.26C20.09 7.74 19.69 7.25 19.15 7.25ZM5.1 9.05C5.02 9.05 4.94 9.03 4.87 9C4.57 8.87 4.44 8.52 4.57 8.23L5.01 7.22L6.28 7.22L5.64 8.69C5.54 8.91 5.33 9.05 5.1 9.05ZM7.07 15.3C7.07 15.62 6.8 15.88 6.48 15.88C6.16 15.88 5.89 15.62 5.89 15.3L5.89 11C5.89 10.68 6.16 10.41 6.48 10.41C6.8 10.41 7.07 10.68 7.07 11L7.07 15.3ZM10.58 15.3C10.58 15.62 10.32 15.88 10 15.88C9.67 15.88 9.41 15.62 9.41 15.3L9.41 11C9.41 10.68 9.67 10.41 10 10.41C10.32 10.41 10.58 10.68 10.58 11L10.58 15.3ZM14.1 15.3C14.1 15.62 13.83 15.88 13.51 15.88C13.19 15.88 12.92 15.62 12.92 15.3L12.92 11C12.92 10.68 13.19 10.41 13.51 10.41C13.83 10.41 14.1 10.68 14.1 11L14.1 15.3ZM15.12 9C15.05 9.03 14.97 9.05 14.89 9.05C14.66 9.05 14.45 8.91 14.35 8.69L13.71 7.22L14.98 7.22L15.42 8.23C15.55 8.52 15.42 8.87 15.12 9Z" fill="#6F73EE" fill-opacity="1.000000" fill-rule="nonzero"></path>
    </g>
  </symbol>
  <symbol fill="none" xmlns="http://www.w3.org/2000/svg" xmlns:xlink="http://www.w3.org/1999/xlink" viewBox="0 0 12 12" id="telegram">
    <desc>Created with Pixso.</desc>
    <defs>
      <clipPath id="clip1_15976">
        <rect id="003-telegram 1" rx="0.000000" width="11.000000" height="11.000000" transform="translate(0.500000 0.500000)" fill="white" fill-opacity="0"></rect>
      </clipPath>
    </defs>
    <rect id="003-telegram 1" rx="0.000000" width="11.000000" height="11.000000" transform="translate(0.500000 0.500000)" fill="#FFFFFF" fill-opacity="0"></rect>
    <g clip-path="url(#clip1_15976)">
      <path id="Vector" d="M4.7 7.59L4.5 10.38C4.79 10.38 4.91 10.26 5.06 10.11L6.39 8.84L9.15 10.86C9.66 11.14 10.01 10.99 10.15 10.39L11.96 1.91L11.96 1.91C12.12 1.16 11.69 0.86 11.2 1.05L0.55 5.12C-0.17 5.41 -0.16 5.81 0.43 5.99L3.15 6.84L9.47 2.89C9.77 2.69 10.04 2.8 9.82 2.99L4.7 7.59Z" fill="#5D6C7B" fill-opacity="1.000000" fill-rule="nonzero"></path>
    </g>
  </symbol>
  <symbol viewBox="0 0 12 13" fill="none" xmlns="http://www.w3.org/2000/svg" id="viber 1">
<g clip-path="url(#clip0_1_15970)">
<path d="M6.40796 7.27975C6.27072 7.41708 6.04815 7.41708 5.91082 7.27975L4.31323 5.68216C4.24731 5.61624 4.21023 5.52679 4.21023 5.43359C4.21023 5.3403 4.24731 5.25095 4.31323 5.18494L4.59723 4.90103L3.76309 4.06689L3.07974 4.75024C2.84976 4.98022 2.84985 5.3544 3.07974 5.58438L6.0086 8.51343C6.11929 8.62411 6.26742 8.685 6.42572 8.685C6.58401 8.685 6.73214 8.62402 6.84283 8.51334L7.52618 7.83008L6.69204 6.99585L6.40796 7.27975Z" fill="#5D6C7B"/>
<path d="M11.4957 4.73541C11.4957 3.60831 11.0541 2.54593 10.2519 1.74384C9.4498 0.941742 8.38742 0.5 7.26041 0.5H4.75085C4.75085 0.5 4.75085 0.5 4.75076 0.5C3.62384 0.5 2.56146 0.941742 1.75946 1.74374C0.957367 2.54584 0.515625 3.60831 0.515625 4.73532V6.70792C0.515625 7.58069 0.78186 8.42032 1.28558 9.13599C1.72998 9.76733 2.32764 10.2604 3.02444 10.5732V11.7062C3.02444 12.2921 3.35248 12.4999 3.63336 12.5C3.83405 12.5 4.03482 12.4009 4.23019 12.2057L5.49243 10.9432H7.2605C8.38751 10.9432 9.44989 10.5015 10.252 9.6994C11.0541 8.89731 11.4958 7.83493 11.4958 6.70792L11.4957 4.73541ZM8.27197 8.07864L7.33997 9.01056C7.09644 9.25409 6.77179 9.38803 6.42572 9.38803C6.07965 9.38803 5.755 9.254 5.51147 9.01056L2.58252 6.08151C2.07852 5.57733 2.07852 4.75711 2.58252 4.25302L3.51453 3.32111C3.58044 3.2551 3.6698 3.21811 3.76309 3.21811C3.85629 3.21811 3.94574 3.2551 4.01166 3.32111L5.34302 4.65247C5.40894 4.71838 5.44592 4.80783 5.44592 4.90103C5.44592 4.99423 5.40894 5.08368 5.34293 5.1496L5.05902 5.4335L6.15948 6.53397L6.44348 6.24997C6.58081 6.11273 6.80338 6.11273 6.94061 6.25006L8.27197 7.58142C8.33798 7.64734 8.37497 7.73679 8.37497 7.82999C8.37497 7.92328 8.33798 8.01273 8.27197 8.07864ZM5.73944 3.91299C5.73944 3.7189 5.89682 3.56143 6.091 3.56143C7.30911 3.56143 8.30017 4.5524 8.30017 5.77042C8.30017 5.9646 8.14279 6.12198 7.94861 6.12198C7.75452 6.12198 7.59705 5.9646 7.59705 5.77042C7.59705 4.94012 6.92148 4.26456 6.091 4.26456C5.89682 4.26456 5.73944 4.10718 5.73944 3.91299ZM9.45474 6.12216C9.26056 6.12216 9.10318 5.96469 9.10318 5.7706C9.10327 4.96594 8.78989 4.20953 8.22098 3.64053C7.65198 3.07162 6.89557 2.75824 6.09091 2.75824C5.89682 2.75824 5.73935 2.60086 5.73935 2.40668C5.73935 2.21259 5.89682 2.05511 6.09091 2.05511C7.08334 2.05511 8.01636 2.44165 8.71811 3.1434C9.41995 3.84515 9.8064 4.77817 9.8063 5.7706C9.8063 5.96469 9.64893 6.12216 9.45474 6.12216Z" fill="#5D6C7B"/>
</g>
<defs>
<clipPath id="clip0_1_15970">
<rect width="12" height="12" fill="white" transform="translate(0 0.5)"/>
</clipPath>
</defs>
</symbol>

  <symbol fill="none" xmlns="http://www.w3.org/2000/svg" xmlns:xlink="http://www.w3.org/1999/xlink" viewBox="0 0 12 12" id="whatsapp">
    <desc>Created with Pixso.</desc>
    <defs>
      <clipPath id="clip1_15973">
        <rect id="003-whatsapp 1" rx="0.000000" width="11.000000" height="11.000000" transform="translate(0.500000 0.500000)" fill="white" fill-opacity="0"></rect>
      </clipPath>
    </defs>
    <rect id="003-whatsapp 1" rx="0.000000" width="11.000000" height="11.000000" transform="translate(0.500000 0.500000)" fill="#FFFFFF" fill-opacity="0"></rect>
    <g clip-path="url(#clip1_15973)">
      <path id="Vector" d="M5.99 0C2.68 0 0 2.68 0 6C0 7.14 0.33 8.27 0.94 9.23L0.01 11.65C-0.04 11.78 0.03 11.93 0.15 11.98C0.18 11.99 0.21 11.99 0.25 11.99C0.27 11.99 0.3 11.99 0.33 11.98L2.83 11.09C5.64 12.84 9.34 11.98 11.09 9.17C12.84 6.35 11.98 2.66 9.17 0.91C8.21 0.31 7.11 0 5.99 0Z" fill="#5D6C7B" fill-opacity="1.000000" fill-rule="nonzero"></path>
      <path id="Vector" d="M8.85 7.02C8.85 7.02 8.24 6.72 7.86 6.52C7.42 6.3 6.91 6.71 6.67 6.95C6.3 6.81 5.96 6.59 5.67 6.32C5.39 6.03 5.18 5.69 5.03 5.31C5.27 5.07 5.69 4.56 5.47 4.13C5.27 3.75 4.97 3.13 4.97 3.13C4.92 3.05 4.84 3 4.74 3L4.24 3C3.52 3.12 2.99 3.76 2.99 4.5C2.99 5.28 3.93 6.79 4.57 7.42C5.2 8.05 6.71 8.99 7.49 8.99C8.23 9 8.86 8.47 8.99 7.74L8.99 7.24C8.99 7.15 8.94 7.06 8.85 7.02Z" fill="#F7F7F7" fill-opacity="1.000000" fill-rule="nonzero"></path>
    </g>
  </symbol>
  <symbol fill="none" xmlns="http://www.w3.org/2000/svg" xmlns:xlink="http://www.w3.org/1999/xlink" viewBox="0 0 20 11.9773" id="Весы">
    <desc>Created with Pixso.</desc>
    <defs></defs>
    <path id="Vector" d="M19.41 7.25L18.77 7.25L16.73 2.31C17.02 2.27 17.24 2.03 17.24 1.73C17.24 1.41 16.97 1.14 16.65 1.14L11.61 1.14C11.37 0.47 10.73 0 9.98 0C9.23 0 8.59 0.47 8.35 1.14L3.34 1.14C3.02 1.14 2.75 1.41 2.75 1.73C2.75 2.03 2.97 2.27 3.26 2.31L1.22 7.25L0.58 7.25C0.26 7.25 0 7.51 0 7.83C0 10.12 1.85 11.97 4.13 11.97C6.42 11.97 8.27 10.12 8.27 7.83C8.27 7.51 8.01 7.25 7.69 7.25L7.05 7.25L5.01 2.32L8.35 2.32C8.59 2.98 9.23 3.46 9.98 3.46C10.73 3.46 11.37 2.98 11.61 2.32L14.98 2.32L12.94 7.25L12.3 7.25C11.98 7.25 11.72 7.51 11.72 7.83C11.72 10.12 13.57 11.97 15.86 11.97C18.14 11.97 20 10.12 20 7.83C20 7.51 19.73 7.25 19.41 7.25ZM4.13 10.8C2.7 10.8 1.5 9.78 1.22 8.42L7.04 8.42C6.77 9.78 5.57 10.8 4.13 10.8ZM5.78 7.25L2.49 7.25L4.13 3.26L5.78 7.25ZM9.98 2.29C9.67 2.29 9.42 2.04 9.42 1.73C9.42 1.42 9.67 1.17 9.98 1.17C10.29 1.17 10.54 1.42 10.54 1.73C10.54 2.04 10.29 2.29 9.98 2.29ZM15.86 3.26L17.5 7.25L14.21 7.25L15.86 3.26ZM15.86 10.8C14.42 10.8 13.22 9.78 12.95 8.42L18.77 8.42C18.49 9.78 17.29 10.8 15.86 10.8Z" fill="#282739" fill-opacity="1.000000" fill-rule="nonzero"></path>
    <path id="Vector" d="M18.19 11.25C17.53 11.7 16.72 11.97 15.86 11.97C14.99 11.97 14.18 11.7 13.52 11.25C13.45 11.2 13.38 11.15 13.31 11.1C13.18 11 13.06 10.89 12.95 10.77C12.59 10.42 12.3 10.01 12.09 9.55C11.85 9.03 11.72 8.45 11.72 7.83C11.72 7.53 11.94 7.28 12.24 7.25C12.26 7.25 12.28 7.25 12.3 7.25L12.94 7.25L13.06 6.96L13.29 6.41L13.33 6.32L13.69 5.43L13.81 5.14L14.11 4.42L14.21 4.18L14.23 4.13L14.33 3.9L14.54 3.37L14.59 3.25L14.98 2.32L11.61 2.32C11.39 2.92 10.84 3.38 10.18 3.45C10.12 3.46 10.05 3.46 9.98 3.46C9.92 3.46 9.87 3.46 9.81 3.46C9.13 3.39 8.57 2.93 8.35 2.32L5.01 2.32L5.4 3.25L5.44 3.36L5.66 3.9L5.76 4.13L5.78 4.18L5.88 4.42L6.18 5.14L6.3 5.43L6.66 6.32L6.72 6.44L6.93 6.96L7.05 7.25L7.69 7.25C7.71 7.25 7.73 7.25 7.75 7.25C8.05 7.28 8.27 7.53 8.27 7.83C8.27 8.45 8.14 9.03 7.9 9.55C7.69 10.01 7.4 10.42 7.04 10.78C6.93 10.89 6.81 11 6.68 11.1C6.61 11.15 6.54 11.2 6.47 11.25C5.81 11.7 5 11.97 4.13 11.97C3.27 11.97 2.46 11.7 1.8 11.25C1.73 11.2 1.66 11.15 1.59 11.1C1.46 11 1.34 10.89 1.22 10.78C0.47 10.02 0 8.98 0 7.83C0 7.51 0.26 7.25 0.58 7.25L1.22 7.25L1.34 6.96L1.73 6.02L1.97 5.43L2.39 4.42L2.49 4.18L2.6 3.9L2.87 3.25L3.26 2.31C3.16 2.3 3.06 2.26 2.99 2.2C2.84 2.09 2.75 1.92 2.75 1.73C2.75 1.41 3.02 1.14 3.34 1.14L8.35 1.14C8.38 1.05 8.42 0.97 8.47 0.89C8.76 0.36 9.33 0 9.98 0C10.62 0 11.19 0.35 11.49 0.87C11.54 0.96 11.58 1.05 11.61 1.14L16.65 1.14C16.97 1.14 17.24 1.41 17.24 1.73C17.24 1.92 17.15 2.09 17 2.2C16.93 2.26 16.83 2.3 16.73 2.31L17.12 3.25L17.39 3.9L17.5 4.18L17.6 4.42L18.02 5.43L18.26 6.02L18.65 6.96L18.77 7.25L19.41 7.25C19.73 7.25 20 7.51 20 7.83C20 8.98 19.52 10.02 18.77 10.78C18.65 10.89 18.53 11 18.4 11.1C18.33 11.15 18.26 11.2 18.19 11.25ZM17.23 10.46C16.83 10.67 16.39 10.79 15.91 10.8C15.89 10.8 15.87 10.8 15.86 10.8C15.84 10.8 15.82 10.8 15.8 10.8C15.33 10.79 14.88 10.67 14.48 10.46C13.7 10.05 13.13 9.31 12.95 8.42L18.77 8.42C18.59 9.31 18.01 10.05 17.23 10.46ZM16.71 7.25L17.5 7.25L17.39 6.96L16.63 5.14L16.63 5.14L16.33 4.42L15.86 3.26L15.38 4.42L15.21 4.82L15.08 5.14L14.98 5.38L14.59 6.32L14.33 6.96L14.21 7.25L16.71 7.25ZM3.66 4.42L3.36 5.14L3.36 5.14L2.6 6.96L2.49 7.25L5.78 7.25L5.66 6.96L5.4 6.32L5.01 5.38L4.91 5.14L4.78 4.82L4.61 4.42L4.13 3.26L3.66 4.42ZM2.95 8.42L1.22 8.42C1.4 9.31 1.98 10.05 2.76 10.46C3.16 10.67 3.6 10.79 4.08 10.8C4.1 10.8 4.12 10.8 4.13 10.8C4.15 10.8 4.17 10.8 4.19 10.8C4.66 10.79 5.11 10.67 5.51 10.46C6.29 10.05 6.86 9.31 7.04 8.42L2.95 8.42ZM9.98 2.29C9.67 2.29 9.42 2.04 9.42 1.73C9.42 1.42 9.67 1.17 9.98 1.17C10.29 1.17 10.54 1.42 10.54 1.73C10.54 2.04 10.29 2.29 9.98 2.29Z" fill="#282739" fill-opacity="1.000000" fill-rule="evenodd"></path>
  </symbol>
  <symbol fill="none" xmlns="http://www.w3.org/2000/svg" xmlns:xlink="http://www.w3.org/1999/xlink" viewBox="0 0 16 16" id="Лупа">
    <desc>Created with Pixso.</desc>
    <defs></defs>
    <path id="Vector" d="M15.95 14.85L10.75 9.65C11.56 8.61 12 7.33 12 6C12 4.39 11.37 2.89 10.24 1.75C9.1 0.62 7.6 0 5.99 0C4.39 0 2.88 0.62 1.75 1.75C0.62 2.89 0 4.39 0 6C0 7.6 0.62 9.1 1.75 10.24C2.88 11.37 4.39 12 5.99 12C7.33 12 8.61 11.56 9.65 10.76L14.84 15.95C14.86 15.96 14.88 15.97 14.9 15.98C14.92 15.99 14.94 16 14.96 16C14.98 16 15 15.99 15.02 15.98C15.04 15.97 15.06 15.96 15.07 15.95L15.95 15.08C15.96 15.06 15.97 15.04 15.98 15.02C15.99 15 16 14.98 16 14.96C16 14.94 15.99 14.92 15.98 14.9C15.97 14.88 15.96 14.86 15.95 14.85ZM9.16 9.16C8.31 10.01 7.19 10.48 5.99 10.48C4.8 10.48 3.67 10.01 2.83 9.16C1.98 8.31 1.51 7.19 1.51 6C1.51 4.8 1.98 3.67 2.83 2.83C3.67 1.98 4.8 1.52 5.99 1.52C7.19 1.52 8.32 1.98 9.16 2.83C10.01 3.67 10.47 4.8 10.47 6C10.47 7.19 10.01 8.32 9.16 9.16Z" fill="#FFFFFF" fill-opacity="1.000000" fill-rule="nonzero"></path>
  </symbol>
  <symbol viewBox="0 0 22 22"  xmlns="http://www.w3.org/2000/svg" id="chek">
<path d="M15.0168 7.58398H14.0092C13.79 7.58398 13.5816 7.68926 13.4527 7.86973L10.0754 12.5533L8.54566 10.4307C8.41676 10.2523 8.21051 10.1449 7.98922 10.1449H6.9816C6.84195 10.1449 6.76031 10.3039 6.84195 10.4178L9.51891 14.1303C9.58215 14.2185 9.66552 14.2905 9.7621 14.3401C9.85868 14.3897 9.9657 14.4156 10.0743 14.4156C10.1829 14.4156 10.2899 14.3897 10.3865 14.3401C10.483 14.2905 10.5664 14.2185 10.6297 14.1303L15.1543 7.85684C15.2381 7.74297 15.1564 7.58398 15.0168 7.58398V7.58398Z"/>
<path d="M11 1.375C5.68477 1.375 1.375 5.68477 1.375 11C1.375 16.3152 5.68477 20.625 11 20.625C16.3152 20.625 20.625 16.3152 20.625 11C20.625 5.68477 16.3152 1.375 11 1.375ZM11 18.9922C6.58711 18.9922 3.00781 15.4129 3.00781 11C3.00781 6.58711 6.58711 3.00781 11 3.00781C15.4129 3.00781 18.9922 6.58711 18.9922 11C18.9922 15.4129 15.4129 18.9922 11 18.9922Z"/>
</symbol>

</svg>