<svg width="12.000000" height="12.000000" viewBox="0 0 12 12" fill="none" xmlns="http://www.w3.org/2000/svg" xmlns:xlink="http://www.w3.org/1999/xlink">
	<desc>
			Created with Pixso.
	</desc>
	<defs>
		<clipPath id="clip1_15976">
			<rect id="003-telegram 1" rx="0.000000" width="11.000000" height="11.000000" transform="translate(0.500000 0.500000)" fill="white" fill-opacity="0"/>
		</clipPath>
	</defs>
	<rect id="003-telegram 1" rx="0.000000" width="11.000000" height="11.000000" transform="translate(0.500000 0.500000)" fill="#FFFFFF" fill-opacity="0"/>
	<g clip-path="url(#clip1_15976)">
		<path id="Vector" d="M4.7 7.59L4.5 10.38C4.79 10.38 4.91 10.26 5.06 10.11L6.39 8.84L9.15 10.86C9.66 11.14 10.01 10.99 10.15 10.39L11.96 1.91L11.96 1.91C12.12 1.16 11.69 0.86 11.2 1.05L0.55 5.12C-0.17 5.41 -0.16 5.81 0.43 5.99L3.15 6.84L9.47 2.89C9.77 2.69 10.04 2.8 9.82 2.99L4.7 7.59Z" fill="#5D6C7B" fill-opacity="1.000000" fill-rule="nonzero"/>
	</g>
</svg>
