<svg width="20.000000" height="20.000000" viewBox="0 0 20 20" fill="none" xmlns="http://www.w3.org/2000/svg" xmlns:xlink="http://www.w3.org/1999/xlink">
	<desc>
			Created with Pixso.
	</desc>
	<defs>
		<filter id="filter_1_15970_dd" x="0.000000" y="0.000000" width="20.000000" height="20.000000" filterUnits="userSpaceOnUse" color-interpolation-filters="sRGB">
			<feFlood flood-opacity="0" result="BackgroundImageFix"/>
			<feColorMatrix in="SourceAlpha" type="matrix" values="0 0 0 0 0 0 0 0 0 0 0 0 0 0 0 0 0 0 127 0" result="hardAlpha"/>
			<feOffset dx="0" dy="4"/>
			<feGaussianBlur stdDeviation="1.33333"/>
			<feComposite in2="hardAlpha" operator="out" k2="-1" k3="1"/>
			<feColorMatrix type="matrix" values="0 0 0 0 0 0 0 0 0 0 0 0 0 0 0 0 0 0 0.25 0"/>
			<feBlend mode="normal" in2="BackgroundImageFix" result="effect_dropShadow_1"/>
			<feBlend mode="normal" in="SourceGraphic" in2="effect_dropShadow_1" result="shape"/>
		</filter>
		<clipPath id="clip1_15970">
			<rect id="viber 1" rx="0.000000" width="11.000000" height="11.000000" transform="translate(4.500000 0.500000)" fill="white" fill-opacity="0"/>
		</clipPath>
	</defs>
	<g filter="url(#filter_1_15970_dd)">
		<rect id="viber 1" rx="0.000000" width="11.000000" height="11.000000" transform="translate(4.500000 0.500000)" fill="#FFFFFF" fill-opacity="0"/>
		<g clip-path="url(#clip1_15970)">
			<path id="Vector" d="M10.4 6.77C10.27 6.91 10.04 6.91 9.91 6.77L8.31 5.18C8.24 5.11 8.21 5.02 8.21 4.93C8.21 4.84 8.24 4.75 8.31 4.68L8.59 4.4L7.76 3.56L7.07 4.25C6.84 4.48 6.84 4.85 7.07 5.08L10 8.01C10.11 8.12 10.26 8.18 10.42 8.18C10.58 8.18 10.73 8.12 10.84 8.01L11.52 7.33L10.69 6.49L10.4 6.77Z" fill="#5D6C7B" fill-opacity="1.000000" fill-rule="nonzero"/>
			<path id="Vector" d="M15.49 4.23C15.49 3.1 15.05 2.04 14.25 1.24C13.44 0.44 12.38 0 11.26 0L8.75 0C8.75 0 8.75 0 8.75 0C7.62 0 6.56 0.44 5.75 1.24C4.95 2.04 4.51 3.1 4.51 4.23L4.51 6.2C4.51 7.08 4.78 7.92 5.28 8.63C5.72 9.26 6.32 9.76 7.02 10.07L7.02 11.2C7.02 11.79 7.35 11.99 7.63 12C7.83 12 8.03 11.9 8.23 11.7L9.49 10.44L11.26 10.44C12.38 10.44 13.44 10 14.25 9.19C15.05 8.39 15.49 7.33 15.49 6.2L15.49 4.23ZM12.27 7.57L11.34 8.51C11.09 8.75 10.77 8.88 10.42 8.88C10.07 8.88 9.75 8.75 9.51 8.51L6.58 5.58C6.07 5.07 6.07 4.25 6.58 3.75L7.51 2.82C7.58 2.75 7.66 2.71 7.76 2.71C7.85 2.71 7.94 2.75 8.01 2.82L9.34 4.15C9.4 4.21 9.44 4.3 9.44 4.4C9.44 4.49 9.4 4.58 9.34 4.64L9.05 4.93L10.15 6.03L10.44 5.75C10.58 5.61 10.8 5.61 10.94 5.75L12.27 7.08C12.33 7.14 12.37 7.23 12.37 7.32C12.37 7.42 12.33 7.51 12.27 7.57ZM9.73 3.41C9.73 3.21 9.89 3.06 10.09 3.06C11.3 3.06 12.3 4.05 12.3 5.27C12.3 5.46 12.14 5.62 11.94 5.62C11.75 5.62 11.59 5.46 11.59 5.27C11.59 4.44 10.92 3.76 10.09 3.76C9.89 3.76 9.73 3.6 9.73 3.41ZM13.45 5.62C13.26 5.62 13.1 5.46 13.1 5.27C13.1 4.46 12.78 3.7 12.22 3.14C11.65 2.57 10.89 2.25 10.09 2.25C9.89 2.25 9.73 2.1 9.73 1.9C9.73 1.71 9.89 1.55 10.09 1.55C11.08 1.55 12.01 1.94 12.71 2.64C13.41 3.34 13.8 4.27 13.8 5.27C13.8 5.46 13.64 5.62 13.45 5.62Z" fill="#5D6C7B" fill-opacity="1.000000" fill-rule="nonzero"/>
		</g>
	</g>
</svg>
